<?xml version="1.0" encoding="utf-8"?>
<!-- Generator: Adobe Illustrator 19.2.1, SVG Export Plug-In . SVG Version: 6.00 Build 0)  -->
<svg version="1.1" id="Calque_1" xmlns="http://www.w3.org/2000/svg" xmlns:xlink="http://www.w3.org/1999/xlink" x="0px" y="0px"
	 viewBox="0 0 24 24" style="enable-background:new 0 0 24 24;" xml:space="preserve">
<path d="M13.5,8C12.1,8,11,9.1,11,10.5c0,0.2,0,0.3,0,0.5l-3,3v1.5C8,15.8,8.2,16,8.5,16H9v-0.5h1v-1h1v-1h1l0.6-0.6
	c0.3,0.1,0.6,0.1,0.9,0.1c1.4,0,2.5-1.1,2.5-2.5S14.9,8,13.5,8z M14.2,10.5c-0.4,0-0.8-0.3-0.8-0.8c0-0.4,0.3-0.8,0.8-0.8
	C14.7,9,15,9.3,15,9.8C15,10.2,14.7,10.5,14.2,10.5z"/>
</svg>
