<svg id="258e54ef-56ff-4cc8-855a-2e13af3608af" data-name="Calque 1" xmlns="http://www.w3.org/2000/svg" viewBox="0 0 32 32"><defs><style>.\36 555b5bd-9ad4-4376-8b3a-1cf5c28b7173{fill:#d9d9d9;}</style></defs><title>n1</title><circle class="6555b5bd-9ad4-4376-8b3a-1cf5c28b7173" cx="16" cy="16" r="16"/><path d="M12.11,11.38a1.55,1.55,0,0,1,1.2.47,1.76,1.76,0,0,1,.44,1.25,1.82,1.82,0,0,1-.44,1.29,1.56,1.56,0,0,1-1.2.47,1.59,1.59,0,0,1-1.21-.47,1.79,1.79,0,0,1-.45-1.29,1.73,1.73,0,0,1,.45-1.25A1.59,1.59,0,0,1,12.11,11.38Zm7.8,0a1.55,1.55,0,0,1,1.2.47,1.76,1.76,0,0,1,.44,1.25,1.82,1.82,0,0,1-.44,1.29,1.56,1.56,0,0,1-1.2.47,1.59,1.59,0,0,1-1.21-.47,1.79,1.79,0,0,1-.45-1.29,1.73,1.73,0,0,1,.45-1.25A1.59,1.59,0,0,1,19.91,11.38Z"/><rect x="14.98" y="16.11" width="2.03" height="10.15" transform="translate(37.19 5.19) rotate(90)"/></svg>