<svg id="ef2d8b51-ef31-46e6-857a-2ce275e28373" data-name="Calque 1" xmlns="http://www.w3.org/2000/svg" viewBox="0 0 32 32"><defs><style>.\35 19ef96c-7c72-433c-8b23-e2e0e1ee3aa4{fill:#78FB99;}</style></defs><title>n2</title><circle class="519ef96c-7c72-433c-8b23-e2e0e1ee3aa4" cx="16" cy="16" r="16"/><path d="M12.11,11.38a1.55,1.55,0,0,1,1.2.47,1.76,1.76,0,0,1,.44,1.25,1.82,1.82,0,0,1-.44,1.29,1.56,1.56,0,0,1-1.2.47,1.59,1.59,0,0,1-1.21-.47,1.79,1.79,0,0,1-.45-1.29,1.73,1.73,0,0,1,.45-1.25A1.59,1.59,0,0,1,12.11,11.38Zm7.8,0a1.55,1.55,0,0,1,1.2.47,1.76,1.76,0,0,1,.44,1.25,1.82,1.82,0,0,1-.44,1.29,1.56,1.56,0,0,1-1.2.47,1.59,1.59,0,0,1-1.21-.47,1.79,1.79,0,0,1-.45-1.29,1.73,1.73,0,0,1,.45-1.25A1.59,1.59,0,0,1,19.91,11.38Z"/><path d="M25.86,17.52a10,10,0,0,1-.95,2.93A8.57,8.57,0,0,1,23,23a9.12,9.12,0,0,1-2.93,1.76,11.21,11.21,0,0,1-4,.66,11.23,11.23,0,0,1-4-.66,9.36,9.36,0,0,1-3-1.76,8.72,8.72,0,0,1-2-2.52,10.6,10.6,0,0,1-1-2.93L8.44,17a9,9,0,0,0,.61,1.71,6.25,6.25,0,0,0,1.31,1.82A7.21,7.21,0,0,0,12.62,22a8.75,8.75,0,0,0,3.45.59A8,8,0,0,0,19.4,22a7.38,7.38,0,0,0,2.23-1.52,6.73,6.73,0,0,0,1.31-1.84A7.38,7.38,0,0,0,23.52,17Z"/></svg>