<svg id="dafc3d9a-1058-40a5-91df-e15a0dfaafad" data-name="Calque 1" xmlns="http://www.w3.org/2000/svg" viewBox="0 0 96 96"><defs><style>.\30 166c4a2-e3ac-42f0-be85-6c68cfd5b24f{fill:none;}</style></defs><title>tous2</title><rect class="0166c4a2-e3ac-42f0-be85-6c68cfd5b24f" width="96" height="96"/><polygon points="64.57 19 42 42.13 31.43 32.11 24 39.54 25.91 41.39 29.31 37.99 31.37 35.92 33.49 37.93 41.92 45.92 62.42 24.91 64.54 22.73 66.69 24.88 70.14 28.33 72 26.43 64.57 19"/><polygon points="31.37 43.92 33.49 45.93 41.92 53.92 62.42 32.91 64.54 30.73 66.69 32.88 70.14 36.33 72 34.43 64.57 27 42 50.13 31.43 40.11 24 47.54 25.91 49.39 29.31 45.99 31.37 43.92"/><polygon points="42 58.13 31.43 48.11 24 55.54 42 73 72 42.43 64.57 35 42 58.13"/><path d="M42,73L24,55.54l7.43-7.43L42,58.13,64.57,35,72,42.43Z"/></svg>